<mxfile host="app.diagrams.net" modified="2021-02-22T22:25:39.739Z" agent="5.0 (Windows NT 10.0; Win64; x64) AppleWebKit/537.36 (KHTML, like Gecko) Chrome/88.0.4324.182 Safari/537.36" etag="HcmTu-1haiEbIh7i3FQO" version="14.4.2" type="github">
  <diagram id="kSNuZY4UFwmqmzobuSMk" name="Page-1">
    <mxGraphModel dx="2249" dy="800" grid="1" gridSize="10" guides="1" tooltips="1" connect="1" arrows="1" fold="1" page="1" pageScale="1" pageWidth="827" pageHeight="1169" math="0" shadow="0">
      <root>
        <mxCell id="0" />
        <mxCell id="1" parent="0" />
        <mxCell id="A6enyM4RWyljDD3ao4cg-2" value="SINISTRA" style="rounded=1;whiteSpace=wrap;html=1;" vertex="1" parent="1">
          <mxGeometry x="110" y="525" width="120" height="60" as="geometry" />
        </mxCell>
        <mxCell id="A6enyM4RWyljDD3ao4cg-3" value="SALTA" style="rounded=1;whiteSpace=wrap;html=1;" vertex="1" parent="1">
          <mxGeometry x="370" y="525" width="120" height="60" as="geometry" />
        </mxCell>
        <mxCell id="A6enyM4RWyljDD3ao4cg-4" value="DESTRA" style="rounded=1;whiteSpace=wrap;html=1;" vertex="1" parent="1">
          <mxGeometry x="620" y="525" width="120" height="60" as="geometry" />
        </mxCell>
        <mxCell id="A6enyM4RWyljDD3ao4cg-5" value="" style="endArrow=none;html=1;" edge="1" parent="1">
          <mxGeometry width="50" height="50" relative="1" as="geometry">
            <mxPoint x="-3" y="410" as="sourcePoint" />
            <mxPoint x="827" y="410" as="targetPoint" />
          </mxGeometry>
        </mxCell>
        <mxCell id="A6enyM4RWyljDD3ao4cg-8" value="Actor" style="shape=umlActor;verticalLabelPosition=bottom;verticalAlign=top;html=1;outlineConnect=0;direction=east;" vertex="1" parent="1">
          <mxGeometry x="320" y="90" width="220" height="310" as="geometry" />
        </mxCell>
      </root>
    </mxGraphModel>
  </diagram>
</mxfile>
